<svg xmlns="http://www.w3.org/2000/svg" width="250" height="250" fill="none" viewBox="0 0 250 250">
<!-- SVG created with Arrow, by QuiverAI (https://quiver.ai) -->
  <path d="m171.3 18.49 15.42 16.86c2.03 2.27 1.28 4.02 0.44 4.77-1.09 0.99-3.15 0.49-4.53-1.43l-15.23-19.94c-0.79-1.06-0.73-1.74-0.25-1.35 0.43 0.35 2.68 2.35 4.15 1.09z" fill="url(#paint0_linear_210_109)"/>
  <path d="m229.8 18.62-19.02 17.25c-1.98 1.81-1.78 3.34-1.02 4.22 1.07 1.3 3.44 0.84 4.95-1.28l16.06-19.9c0.72-0.93 0.64-1.67 0.2-1.3-0.37 0.3-0.58 0.54-1.17 1.01z" fill="url(#paint1_linear_210_109)"/>
  <path d="m198.3 10.38-2.22 19.73c-0.3 2.73 0.61 4.38 2.53 4.42 1.92 0.05 2.2-2.34 2.06-4.79l-1.85-19.48c-0.09-0.85-0.43-0.82-0.52 0.12z" fill="url(#paint2_linear_210_109)"/>
  <path d="m241.5 49.3-23.9-1.63c-2.38-0.18-3.81 0.74-3.78 2.64 0.02 1.76 1.59 2.55 3.93 2.38l23.72-2.55c0.85-0.1 1-0.73 0.03-0.84z" fill="url(#paint3_linear_210_109)"/>
  <path d="m230.7 80.53-17.54-19.67c-1.58-1.9-3-0.99-3.54-0.31-0.96 1.23-0.41 3.39 1.35 4.97l18.96 15.9c0.8 0.67 1.34-0.14 0.77-0.89z" fill="url(#paint4_linear_210_109)"/>
  <path d="m163 49.22 11.87-1.31c1.86-0.24 2.54 0.73 2.46 1.79-0.1 1.18-1.42 1.78-2.84 1.62l-11.55-1.41c-1.11-0.15-1.19-0.5 0.06-0.69z" fill="url(#paint5_linear_210_109)"/>
  <path d="m183.4 5.22-1.22 4.46-5.3 2.41 5.51 2.17 1.55 4.49 2.09-5.3 3.43-1.15-0.11-0.71-4.31-1.58-1.64-4.79z" fill="url(#paint6_linear_210_109)"/>
  <path d="m238.3 28.65-1.56 5.06-5.41 1.91 5.38 2.23 1.06 5.09 2.19-5.26 4.71-1.79-4.78-2.63-1.59-4.61z" fill="url(#paint7_linear_210_109)"/>
  <path d="m186.5 94.81-2.02 6.17-5.92 2.29 6.59 2.04 1.41 5.61 2.29-6.22 5.1-1.86-5.69-2.73-1.76-5.3z" fill="url(#paint8_linear_210_109)"/>
  <path d="m151.4 52.72-2.53 7.98-7.06 2.88 8.33 3.07 0.87 7.26 3.15-8.1 8.08-2.05-8.41-3.6-2.43-7.44z" fill="url(#paint9_linear_210_109)"/>
  <path d="m212.3 82.21-0.81 3.91-3.65 1.25 3.93 1.64 1.1 2.69 1.54-3.93 3.11-1.27-3.34-1.2-1.88-3.09z" fill="url(#paint10_linear_210_109)"/>
  <path d="m198.6 72.13c-1.35 0.25-1.88 1.6-1.5 3.84l1.32 10.14c0.13 0.96 0.64 0.8 0.76-0.06l0.87-11.3c0.2-1.76-0.44-2.8-1.45-2.62z" fill="url(#paint11_linear_210_109)"/>
  <path d="m160.6 34.58c-2.18 0-2.8 1.49-2.8 2.38 0 1.5 1.09 2.41 2.34 2.41 1.71 0 2.91-1.12 2.86-2.36-0.05-1.25-0.8-2.43-2.4-2.43z" fill="url(#paint12_linear_210_109)"/>
  <path d="m213.6 12.11c-1.76 0.47-2.01 1.7-1.76 2.66 0.38 1.41 1.39 1.79 2.48 1.59 1.5-0.3 2.04-1.44 1.78-2.67-0.25-1.13-1.34-1.93-2.5-1.58z" fill="url(#paint13_linear_210_109)"/>
  <path d="m235.2 63.08c-2.18 0.18-2.18 1.69-2.12 2.49 0.15 1.25 1.24 1.79 2.59 1.69 1.55-0.15 1.9-1.34 1.8-2.25-0.15-1.25-0.95-2.05-2.27-1.93z" fill="url(#paint14_linear_210_109)"/>
  <path d="m139.5 83.52c-2.39 0.2-2.97 1.86-2.59 3.13 0.48 1.63 1.63 1.73 2.49 1.63 1.61-0.2 2.29-1.5 2.14-2.67-0.16-1.17-1.01-2.19-2.04-2.09z" fill="url(#paint15_linear_210_109)"/>
  <path d="m166.2 111.7c-2.02 0.11-2.5 1.46-2.35 2.61 0.25 1.5 1.4 2 2.5 1.9 1.6-0.2 2.3-1.4 2.15-2.6s-1.15-2-2.3-1.91z" fill="url(#paint16_linear_210_109)"/>
  <path d="m171.5 69.71c-10.71 13.05-21.27 23.4-39.5 33.9-20.81 11.86-35.2 23.47-51.2 47.85l12.92 13.15c13.3-21.58 25.25-35.62 45.54-47.47 17.5-10.19 28.51-21.39 42.38-37.18l-10.14-10.25z" fill="url(#paint17_linear_210_109)"/>
  <path d="m192.9 46.47-19.26 20.84 9.74 9.74 18.24-21.63c2.63-3.15 1.48-6.45-1.54-9-2.73-2.33-5.06-2.18-7.18 0.05zm-12.85 20.88 15.02-18.64 1 1.01-14.05 19.19-1.97-1.56z" fill="url(#paint18_linear_210_109)"/>
  <path d="m72.91 153.8c-1.71 1.89-1.86 3.92-1.86 4.46-0.06 2.46-1.77 3.97-4.39 4.56-2.5 0.59-5.55 1.45-6.45 6.3-1.86 9.79-13.03 17.77-23.17 24.19-9.13 5.46-12.78 9.39-15.02 17.08-0.91 3.34-1.95 4.2-5.87 3.85-6.07-0.51-10.63 4.95-10.63 12.98 0 9 10.13 17.85 19.87 17.21 6.89-0.49 9.98-5.53 9.82-9.81-0.15-4.18 1.61-7.15 5.06-7.79 9.57-1.91 13.65-10.11 17.44-17.41 5.4-10.55 11.04-19.81 22-23.79 4.18-1.56 5.33-3.17 5.5-6.46 0.1-2.24 1.5-4.37 2.56-4.22 2.57 0.37 4.54-0.31 5.55-2.7 0.86-2.13-0.39-4.16-3.27-6.69l-11.39-11.41c-1.92-1.86-4.25-1.86-5.75-0.35zm-52.4 68.62c-6.07-1.15-9.46 2-9.66 6.5-1.1-5.1 2.93-10.5 9.16-9.79 1.86 0.25 2.29 0.79 2.14 1.6-0.18 0.96-0.83 1.84-1.64 1.69zm49.3-54.53c-2.88 0.05-4.33 1.86-5.19 5.94-1.4 6.96-12.8 19.43-23.91 25.19-9.29 5-12.49 9.7-14.25 17.1-0.4 1.71-2.21 1.17-1.67-0.86 2.52-9.44 4.49-12.12 16.72-19.32 10.62-6.32 20.4-15.71 22.37-23.75 1.01-4.45 3.14-5.8 6.21-5.8 1.71 0 2.19 1.45-0.28 1.5z" fill="url(#paint19_linear_210_109)"/>
  <path d="m171.7 76.32c-11.01 13.6-21.57 23.59-37.88 32.44-13.77 7.45-26.59 15.32-35.92 28.68 8.9-10.55 19.91-19.69 39.47-29.83 13.02-6.85 21.92-15.99 34.84-30.42l-0.51-0.87z" fill="#FEFFFE"/>
  <defs>
    <linearGradient id="paint0_linear_210_109" x1="177.6" x2="177.6" y1="17.17" y2="40.72" gradientUnits="userSpaceOnUse">
      <stop stop-color="#CDAE63" offset="0"/>
      <stop stop-color="#BE9742" offset="1"/>
    </linearGradient>
    <linearGradient id="paint1_linear_210_109" x1="220.3" x2="220.3" y1="17.45" y2="40.87" gradientUnits="userSpaceOnUse">
      <stop stop-color="#CDAE63" offset="0"/>
      <stop stop-color="#BE9742" offset="1"/>
    </linearGradient>
    <linearGradient id="paint2_linear_210_109" x1="198.4" x2="198.4" y1="9.761" y2="34.53" gradientUnits="userSpaceOnUse">
      <stop stop-color="#CDAE63" offset="0"/>
      <stop stop-color="#BE9742" offset="1"/>
    </linearGradient>
    <linearGradient id="paint3_linear_210_109" x1="228.1" x2="228.1" y1="47.6" y2="52.76" gradientUnits="userSpaceOnUse">
      <stop stop-color="#CDAE63" offset="0"/>
      <stop stop-color="#BE9742" offset="1"/>
    </linearGradient>
    <linearGradient id="paint4_linear_210_109" x1="220.3" x2="220.3" y1="59.8" y2="81.78" gradientUnits="userSpaceOnUse">
      <stop stop-color="#CDAE63" offset="0"/>
      <stop stop-color="#BE9742" offset="1"/>
    </linearGradient>
    <linearGradient id="paint5_linear_210_109" x1="170" x2="170" y1="47.85" y2="51.38" gradientUnits="userSpaceOnUse">
      <stop stop-color="#CDAE63" offset="0"/>
      <stop stop-color="#BE9742" offset="1"/>
    </linearGradient>
    <linearGradient id="paint6_linear_210_109" x1="183.1" x2="183.1" y1="5.217" y2="18.75" gradientUnits="userSpaceOnUse">
      <stop stop-color="#CDAE63" offset="0"/>
      <stop stop-color="#BE9742" offset="1"/>
    </linearGradient>
    <linearGradient id="paint7_linear_210_109" x1="238" x2="238" y1="28.65" y2="42.94" gradientUnits="userSpaceOnUse">
      <stop stop-color="#CDAE63" offset="0"/>
      <stop stop-color="#BE9742" offset="1"/>
    </linearGradient>
    <linearGradient id="paint8_linear_210_109" x1="186.2" x2="186.2" y1="94.81" y2="110.9" gradientUnits="userSpaceOnUse">
      <stop stop-color="#CDAE63" offset="0"/>
      <stop stop-color="#BE9742" offset="1"/>
    </linearGradient>
    <linearGradient id="paint9_linear_210_109" x1="152" x2="152" y1="52.72" y2="73.91" gradientUnits="userSpaceOnUse">
      <stop stop-color="#CDAE63" offset="0"/>
      <stop stop-color="#BE9742" offset="1"/>
    </linearGradient>
    <linearGradient id="paint10_linear_210_109" x1="212.7" x2="212.7" y1="82.21" y2="91.7" gradientUnits="userSpaceOnUse">
      <stop stop-color="#CDAE63" offset="0"/>
      <stop stop-color="#BE9742" offset="1"/>
    </linearGradient>
    <linearGradient id="paint11_linear_210_109" x1="198.5" x2="198.5" y1="72.09" y2="86.77" gradientUnits="userSpaceOnUse">
      <stop stop-color="#CDAE63" offset="0"/>
      <stop stop-color="#BE9742" offset="1"/>
    </linearGradient>
    <linearGradient id="paint12_linear_210_109" x1="160.4" x2="160.4" y1="34.58" y2="39.37" gradientUnits="userSpaceOnUse">
      <stop stop-color="#CDAE63" offset="0"/>
      <stop stop-color="#BE9742" offset="1"/>
    </linearGradient>
    <linearGradient id="paint13_linear_210_109" x1="214" x2="214" y1="12" y2="16.43" gradientUnits="userSpaceOnUse">
      <stop stop-color="#CDAE63" offset="0"/>
      <stop stop-color="#BE9742" offset="1"/>
    </linearGradient>
    <linearGradient id="paint14_linear_210_109" x1="235.3" x2="235.3" y1="63.06" y2="67.29" gradientUnits="userSpaceOnUse">
      <stop stop-color="#CDAE63" offset="0"/>
      <stop stop-color="#BE9742" offset="1"/>
    </linearGradient>
    <linearGradient id="paint15_linear_210_109" x1="139.2" x2="139.2" y1="83.51" y2="88.33" gradientUnits="userSpaceOnUse">
      <stop stop-color="#CDAE63" offset="0"/>
      <stop stop-color="#BE9742" offset="1"/>
    </linearGradient>
    <linearGradient id="paint16_linear_210_109" x1="166.1" x2="166.1" y1="111.7" y2="116.2" gradientUnits="userSpaceOnUse">
      <stop stop-color="#CDAE63" offset="0"/>
      <stop stop-color="#BE9742" offset="1"/>
    </linearGradient>
    <linearGradient id="paint17_linear_210_109" x1="131.2" x2="131.2" y1="69.71" y2="164.6" gradientUnits="userSpaceOnUse">
      <stop stop-color="#003A69" offset="0"/>
      <stop stop-color="#20517E" offset="1"/>
    </linearGradient>
    <linearGradient id="paint18_linear_210_109" x1="188.8" x2="188.8" y1="44.71" y2="77.05" gradientUnits="userSpaceOnUse">
      <stop stop-color="#CDAE63" offset="0"/>
      <stop stop-color="#BE9742" offset="1"/>
    </linearGradient>
    <linearGradient id="paint19_linear_210_109" x1="49.46" x2="49.46" y1="152.5" y2="244.5" gradientUnits="userSpaceOnUse">
      <stop stop-color="#003A69" offset="0"/>
      <stop stop-color="#20517E" offset="1"/>
    </linearGradient>
  </defs>
</svg>